<svg width="16" height="20" viewBox="0 0 16 20" fill="none" xmlns="http://www.w3.org/2000/svg">
<g clip-path="url(#clip0_422_1989)">
<path d="M15.4965 6.8202C15.3831 6.9098 13.369 8.0486 13.369 10.6206C13.369 13.5892 15.9245 14.6385 16 14.6641C15.9874 14.7409 15.5972 16.0972 14.653 17.5048C13.8222 18.7332 12.9284 19.9744 11.594 19.9744C10.2597 19.9744 9.90714 19.1683 8.37136 19.1683C6.86073 19.1683 6.33204 20 5.11092 20C3.8898 20 3.03382 18.8484 2.05192 17.4536C0.91898 15.803 0 13.2566 0 10.8253C0 6.94816 2.47994 4.87524 4.9347 4.87524C6.23134 4.87524 7.31391 5.74536 8.13218 5.74536C8.90009 5.74536 10.1086 4.82404 11.594 4.82404C12.1605 4.82404 14.1747 4.87524 15.4965 6.8202ZM8.23292 4.60652C8.13218 4.60652 8.03144 4.59372 7.96852 4.58092C7.95593 4.52972 7.93074 4.3762 7.93074 4.22264C7.93074 3.1862 8.44688 2.16252 9.01339 1.50992C9.71829 0.6654 10.9142 0.0384 11.8961 0C11.9213 0.1152 11.9339 0.25592 11.9339 0.39668C11.9339 1.42036 11.5059 2.444 10.9016 3.1862C10.2471 4.00512 9.12668 4.60652 8.23289 4.60652H8.23292Z" fill="white"/>
</g>
<defs>
<clipPath id="clip0_422_1989">
<rect width="16" height="20" fill="white"/>
</clipPath>
</defs>
</svg>
