<svg width="16" height="18" viewBox="0 0 16 18" fill="none" xmlns="http://www.w3.org/2000/svg">
<g clip-path="url(#clip0_422_1983)">
<path d="M7.502 8.61166L0.0683594 16.5338L0.0695509 16.5387C0.297738 17.399 1.08001 18.0323 2.00884 18.0323C2.38002 18.0323 2.72855 17.9317 3.02764 17.7547L3.05117 17.7404L11.4175 12.8915L7.502 8.61166Z" fill="#EA4335"/>
<path d="M15.0225 7.26263L15.0154 7.25806L11.4028 5.15488L7.33301 8.79136L11.4171 12.8916L15.0106 10.8097C15.6404 10.468 16.0681 9.80146 16.0681 9.03267C16.0681 8.26877 15.6463 7.60554 15.0225 7.26263Z" fill="#FBBC04"/>
<path d="M0.0682184 1.49797C0.0228042 1.66692 -0.000142094 1.84137 6.61996e-07 2.0166V16.0155C0.00715011 16.2166 0.0232364 16.3694 0.0685162 16.5338L7.75775 8.81456L0.0682184 1.49797Z" fill="#4285F4"/>
<path d="M7.55681 9.0162L11.4032 5.15488L3.0464 0.288343C2.73189 0.0990887 2.37363 -0.000457518 2.00884 4.76898e-05C1.08001 4.76898e-05 0.296546 0.634602 0.0683594 1.49613V1.49796L7.55681 9.0162Z" fill="#34A853"/>
</g>
<defs>
<clipPath id="clip0_422_1983">
<rect width="16" height="18" fill="white"/>
</clipPath>
</defs>
</svg>
